<svg id="my-svg" width="100%" xmlns="http://www.w3.org/2000/svg" xmlns:xlink="http://www.w3.org/1999/xlink" class="flowchart" style="max-width: 853.06px; background-color: transparent;" viewBox="0.0000019073486328125 0 853.0596313476562 881" role="graphics-document document" aria-roledescription="flowchart-v2"><style>#my-svg{font-family:-apple-system,BlinkMacSystemFont,Helvetica Neue,sans-serif;font-size:14px;fill:#131311;}@keyframes edge-animation-frame{from{stroke-dashoffset:0;}}@keyframes dash{to{stroke-dashoffset:0;}}#my-svg .edge-animation-slow{stroke-dasharray:9,5!important;stroke-dashoffset:900;animation:dash 50s linear infinite;stroke-linecap:round;}#my-svg .edge-animation-fast{stroke-dasharray:9,5!important;stroke-dashoffset:900;animation:dash 20s linear infinite;stroke-linecap:round;}#my-svg .error-icon{fill:#e7e4dd;}#my-svg .error-text{fill:#181b22;stroke:#181b22;}#my-svg .edge-thickness-normal{stroke-width:1px;}#my-svg .edge-thickness-thick{stroke-width:3.5px;}#my-svg .edge-pattern-solid{stroke-dasharray:0;}#my-svg .edge-thickness-invisible{stroke-width:0;fill:none;}#my-svg .edge-pattern-dashed{stroke-dasharray:3;}#my-svg .edge-pattern-dotted{stroke-dasharray:2;}#my-svg .marker{fill:#6d6b63;stroke:#6d6b63;}#my-svg .marker.cross{stroke:#6d6b63;}#my-svg svg{font-family:-apple-system,BlinkMacSystemFont,Helvetica Neue,sans-serif;font-size:14px;}#my-svg p{margin:0;}#my-svg .label{font-family:-apple-system,BlinkMacSystemFont,Helvetica Neue,sans-serif;color:#131311;}#my-svg .cluster-label text{fill:#181b22;}#my-svg .cluster-label span{color:#181b22;}#my-svg .cluster-label span p{background-color:transparent;}#my-svg .label text,#my-svg span{fill:#131311;color:#131311;}#my-svg .node rect,#my-svg .node circle,#my-svg .node ellipse,#my-svg .node polygon,#my-svg .node path{fill:#f7f5f0;stroke:#c9c5bc;stroke-width:1px;}#my-svg .rough-node .label text,#my-svg .node .label text,#my-svg .image-shape .label,#my-svg .icon-shape .label{text-anchor:middle;}#my-svg .node .katex path{fill:#000;stroke:#000;stroke-width:1px;}#my-svg .rough-node .label,#my-svg .node .label,#my-svg .image-shape .label,#my-svg .icon-shape .label{text-align:center;}#my-svg .node.clickable{cursor:pointer;}#my-svg .root .anchor path{fill:#6d6b63!important;stroke-width:0;stroke:#6d6b63;}#my-svg .arrowheadPath{fill:rgba(255, 255, 255, 0);}#my-svg .edgePath .path{stroke:#6d6b63;stroke-width:1px;}#my-svg .flowchart-link{stroke:#6d6b63;fill:none;}#my-svg .edgeLabel{background-color:#efece6;text-align:center;}#my-svg .edgeLabel p{background-color:#efece6;}#my-svg .edgeLabel rect{opacity:0.5;background-color:#efece6;fill:#efece6;}#my-svg .labelBkg{background-color:rgba(239, 236, 230, 0.5);}#my-svg .cluster rect{fill:#e7e4dd;stroke:hsl(42, 0%, 78.6274509804%);stroke-width:1px;}#my-svg .cluster text{fill:#181b22;}#my-svg .cluster span{color:#181b22;}#my-svg div.mermaidTooltip{position:absolute;text-align:center;max-width:200px;padding:2px;font-family:-apple-system,BlinkMacSystemFont,Helvetica Neue,sans-serif;font-size:12px;background:#e7e4dd;border:1px solid hsl(42, 0%, 78.6274509804%);border-radius:2px;pointer-events:none;z-index:100;}#my-svg .flowchartTitleText{text-anchor:middle;font-size:18px;fill:#131311;}#my-svg rect.text{fill:none;stroke-width:0;}#my-svg .icon-shape,#my-svg .image-shape{background-color:#efece6;text-align:center;}#my-svg .icon-shape p,#my-svg .image-shape p{background-color:#efece6;padding:2px;}#my-svg .icon-shape .label rect,#my-svg .image-shape .label rect{opacity:0.5;background-color:#efece6;fill:#efece6;}#my-svg .label-icon{display:inline-block;height:1em;overflow:visible;vertical-align:-0.125em;}#my-svg .node .label-icon path{fill:currentColor;stroke:revert;stroke-width:revert;}#my-svg .node .neo-node{stroke:#c9c5bc;}#my-svg [data-look="neo"].node rect,#my-svg [data-look="neo"].cluster rect,#my-svg [data-look="neo"].node polygon{stroke:url(#my-svg-gradient);filter:drop-shadow( 1px 2px 2px rgba(185,185,185,1));}#my-svg [data-look="neo"].swimlane.cluster rect{filter:none;}#my-svg [data-look="neo"].node path{stroke:url(#my-svg-gradient);stroke-width:1px;}#my-svg [data-look="neo"].node .outer-path{filter:drop-shadow( 1px 2px 2px rgba(185,185,185,1));}#my-svg [data-look="neo"].node .neo-line path{stroke:#c9c5bc;filter:none;}#my-svg [data-look="neo"].node circle{stroke:url(#my-svg-gradient);filter:drop-shadow( 1px 2px 2px rgba(185,185,185,1));}#my-svg [data-look="neo"].node circle .state-start{fill:#000000;}#my-svg [data-look="neo"].icon-shape .icon{fill:url(#my-svg-gradient);filter:drop-shadow( 1px 2px 2px rgba(185,185,185,1));}#my-svg [data-look="neo"].icon-shape .icon-neo path{stroke:url(#my-svg-gradient);filter:drop-shadow( 1px 2px 2px rgba(185,185,185,1));}#my-svg :root{--mermaid-font-family:"trebuchet ms",verdana,arial,sans-serif;}</style><g><marker id="my-svg_flowchart-v2-pointEnd" class="marker flowchart-v2" viewBox="0 0 10 10" refX="5" refY="5" markerUnits="userSpaceOnUse" markerWidth="8" markerHeight="8" orient="auto"><path d="M 0 0 L 10 5 L 0 10 z" class="arrowMarkerPath" style="stroke-width: 1; stroke-dasharray: 1, 0;"/></marker><marker id="my-svg_flowchart-v2-pointStart" class="marker flowchart-v2" viewBox="0 0 10 10" refX="4.5" refY="5" markerUnits="userSpaceOnUse" markerWidth="8" markerHeight="8" orient="auto"><path d="M 0 5 L 10 10 L 10 0 z" class="arrowMarkerPath" style="stroke-width: 1; stroke-dasharray: 1, 0;"/></marker><marker id="my-svg_flowchart-v2-pointEnd-margin" class="marker flowchart-v2" viewBox="0 0 11.5 14" refX="11.5" refY="7" markerUnits="userSpaceOnUse" markerWidth="10.5" markerHeight="14" orient="auto"><path d="M 0 0 L 11.5 7 L 0 14 z" class="arrowMarkerPath" style="stroke-width: 0; stroke-dasharray: 1, 0;"/></marker><marker id="my-svg_flowchart-v2-pointStart-margin" class="marker flowchart-v2" viewBox="0 0 11.5 14" refX="1" refY="7" markerUnits="userSpaceOnUse" markerWidth="11.5" markerHeight="14" orient="auto"><polygon points="0,7 11.5,14 11.5,0" class="arrowMarkerPath" style="stroke-width: 0; stroke-dasharray: 1, 0;"/></marker><marker id="my-svg_flowchart-v2-circleEnd" class="marker flowchart-v2" viewBox="0 0 10 10" refX="11" refY="5" markerUnits="userSpaceOnUse" markerWidth="11" markerHeight="11" orient="auto"><circle cx="5" cy="5" r="5" class="arrowMarkerPath" style="stroke-width: 1; stroke-dasharray: 1, 0;"/></marker><marker id="my-svg_flowchart-v2-circleStart" class="marker flowchart-v2" viewBox="0 0 10 10" refX="-1" refY="5" markerUnits="userSpaceOnUse" markerWidth="11" markerHeight="11" orient="auto"><circle cx="5" cy="5" r="5" class="arrowMarkerPath" style="stroke-width: 1; stroke-dasharray: 1, 0;"/></marker><marker id="my-svg_flowchart-v2-circleEnd-margin" class="marker flowchart-v2" viewBox="0 0 10 10" refY="5" refX="12.25" markerUnits="userSpaceOnUse" markerWidth="14" markerHeight="14" orient="auto"><circle cx="5" cy="5" r="5" class="arrowMarkerPath" style="stroke-width: 0; stroke-dasharray: 1, 0;"/></marker><marker id="my-svg_flowchart-v2-circleStart-margin" class="marker flowchart-v2" viewBox="0 0 10 10" refX="-2" refY="5" markerUnits="userSpaceOnUse" markerWidth="14" markerHeight="14" orient="auto"><circle cx="5" cy="5" r="5" class="arrowMarkerPath" style="stroke-width: 0; stroke-dasharray: 1, 0;"/></marker><marker id="my-svg_flowchart-v2-crossEnd" class="marker cross flowchart-v2" viewBox="0 0 11 11" refX="12" refY="5.2" markerUnits="userSpaceOnUse" markerWidth="11" markerHeight="11" orient="auto"><path d="M 1,1 l 9,9 M 10,1 l -9,9" class="arrowMarkerPath" style="stroke-width: 2; stroke-dasharray: 1, 0;"/></marker><marker id="my-svg_flowchart-v2-crossStart" class="marker cross flowchart-v2" viewBox="0 0 11 11" refX="-1" refY="5.2" markerUnits="userSpaceOnUse" markerWidth="11" markerHeight="11" orient="auto"><path d="M 1,1 l 9,9 M 10,1 l -9,9" class="arrowMarkerPath" style="stroke-width: 2; stroke-dasharray: 1, 0;"/></marker><marker id="my-svg_flowchart-v2-crossEnd-margin" class="marker cross flowchart-v2" viewBox="0 0 15 15" refX="17.7" refY="7.5" markerUnits="userSpaceOnUse" markerWidth="12" markerHeight="12" orient="auto"><path d="M 1,1 L 14,14 M 1,14 L 14,1" class="arrowMarkerPath" style="stroke-width: 2.5;"/></marker><marker id="my-svg_flowchart-v2-crossStart-margin" class="marker cross flowchart-v2" viewBox="0 0 15 15" refX="-3.5" refY="7.5" markerUnits="userSpaceOnUse" markerWidth="12" markerHeight="12" orient="auto"><path d="M 1,1 L 14,14 M 1,14 L 14,1" class="arrowMarkerPath" style="stroke-width: 2.5; stroke-dasharray: 1, 0;"/></marker><g class="root"><g class="clusters"/><g class="edgePaths"><path d="M70.544,471.5L74.627,471.417C78.711,471.333,86.877,471.167,94.461,471.083C102.044,471,109.044,471,112.544,471L116.044,471" id="my-svg-L_A_S_0" class="edge-thickness-normal edge-pattern-solid edge-thickness-normal edge-pattern-solid flowchart-link" style=";" data-edge="true" data-et="edge" data-id="L_A_S_0" data-points="W3sieCI6NzAuNTQ0MDAzNzgzMjIwNDIsInkiOjQ3MS41fSx7IngiOjk1LjA0NDAwMjUzMjk1ODk4LCJ5Ijo0NzF9LHsieCI6MTIwLjA0NDAwMjUzMjk1ODk4LCJ5Ijo0NzF9XQ==" data-look="classic" marker-end="url(#my-svg_flowchart-v2-pointEnd)"/><path d="M191.983,445.5L206.035,388.75C220.087,332,248.19,218.5,266.387,161.75C284.583,105,292.872,105,297.017,105L301.161,105" id="my-svg-L_S_AU_0" class="edge-thickness-normal edge-pattern-solid edge-thickness-normal edge-pattern-solid flowchart-link" style=";" data-edge="true" data-et="edge" data-id="L_S_AU_0" data-points="W3sieCI6MTkxLjk4MzAzOTQxODIwNDksInkiOjQ0NS41fSx7IngiOjI3Ni4yOTQwMDI1MzI5NTksInkiOjEwNX0seyJ4IjozMDUuMTYxMTkwMDMyOTU5LCJ5IjoxMDV9XQ==" data-look="classic" marker-end="url(#my-svg_flowchart-v2-pointEnd)"/><path d="M475.427,105L480.238,105C485.049,105,494.672,105,502.983,105C511.294,105,518.294,105,521.794,105L525.294,105" id="my-svg-L_AU_PT_0" class="edge-thickness-normal edge-pattern-solid edge-thickness-normal edge-pattern-solid flowchart-link" style=";" data-edge="true" data-et="edge" data-id="L_AU_PT_0" data-points="W3sieCI6NDc1LjQyNjgxNTAzMjk1OSwieSI6MTA1fSx7IngiOjUwNC4yOTQwMDI1MzI5NTksInkiOjEwNX0seyJ4Ijo1MjkuMjk0MDAyNTMyOTU5LCJ5IjoxMDV9XQ==" data-look="classic" marker-end="url(#my-svg_flowchart-v2-pointEnd)"/><path d="M589.994,85.622L597.39,78.685C604.787,71.748,619.579,57.874,636.619,50.937C653.659,44,672.945,44,682.588,44L692.232,44" id="my-svg-L_PT_BR_0" class="edge-thickness-normal edge-pattern-solid edge-thickness-normal edge-pattern-solid flowchart-link" style=";" data-edge="true" data-et="edge" data-id="L_PT_BR_0" data-points="W3sieCI6NTg5Ljk5NDE0NDUxNjc4MSwieSI6ODUuNjIyMDE2OTgzODIxOTh9LHsieCI6NjM0LjM3MjEyNzUzMjk1OSwieSI6NDR9LHsieCI6Njk2LjIzMTUwMjUzMjk1OSwieSI6NDR9XQ==" data-look="classic" marker-end="url(#my-svg_flowchart-v2-pointEnd)"/><path d="M589.994,124.378L597.39,131.315C604.787,138.252,619.579,152.126,630.476,159.063C641.372,166,648.372,166,651.872,166L655.372,166" id="my-svg-L_PT_GQ_0" class="edge-thickness-normal edge-pattern-solid edge-thickness-normal edge-pattern-solid flowchart-link" style=";" data-edge="true" data-et="edge" data-id="L_PT_GQ_0" data-points="W3sieCI6NTg5Ljk5NDE0NDUxNjc4MSwieSI6MTI0LjM3Nzk4MzAxNjE3ODAyfSx7IngiOjYzNC4zNzIxMjc1MzI5NTksInkiOjE2Nn0seyJ4Ijo2NTkuMzcyMTI3NTMyOTU5LCJ5IjoxNjZ9XQ==" data-look="classic" marker-end="url(#my-svg_flowchart-v2-pointEnd)"/><path d="M195.14,445.5L208.666,409.083C222.191,372.667,249.243,299.833,269.064,263.417C288.885,227,301.476,227,307.772,227L314.067,227" id="my-svg-L_S_F1_0" class="edge-thickness-normal edge-pattern-solid edge-thickness-normal edge-pattern-solid flowchart-link" style=";" data-edge="true" data-et="edge" data-id="L_S_F1_0" data-points="W3sieCI6MTk1LjE0MDA1Nzg2MDgyNzgyLCJ5Ijo0NDUuNX0seyJ4IjoyNzYuMjk0MDAyNTMyOTU5LCJ5IjoyMjd9LHsieCI6MzE0LjA2NzQ0MDAzMjk1OSwieSI6MjI3fV0=" data-look="classic"/><path d="M204.611,445.5L216.558,429.417C228.505,413.333,252.4,381.167,271.357,365.083C290.315,349,304.336,349,311.346,349L318.357,349" id="my-svg-L_S_F2_0" class="edge-thickness-normal edge-pattern-solid edge-thickness-normal edge-pattern-solid flowchart-link" style=";" data-edge="true" data-et="edge" data-id="L_S_F2_0" data-points="W3sieCI6MjA0LjYxMTExMzE4ODY5NjcsInkiOjQ0NS41fSx7IngiOjI3Ni4yOTQwMDI1MzI5NTksInkiOjM0OX0seyJ4IjozMTguMzU2NTAyNTMyOTU5LCJ5IjozNDl9XQ==" data-look="classic"/><path d="M251.294,471L255.461,471C259.627,471,267.961,471,277.765,471C287.57,471,298.846,471,304.484,471L310.122,471" id="my-svg-L_S_F3_0" class="edge-thickness-normal edge-pattern-solid edge-thickness-normal edge-pattern-solid flowchart-link" style=";" data-edge="true" data-et="edge" data-id="L_S_F3_0" data-points="W3sieCI6MjUxLjI5NDAwMjUzMjk1ODk4LCJ5Ijo0NzF9LHsieCI6Mjc2LjI5NDAwMjUzMjk1OSwieSI6NDcxfSx7IngiOjMxMC4xMjIxMjc1MzI5NTksInkiOjQ3MX1d" data-look="classic"/><path d="M204.611,496.5L216.558,512.583C228.505,528.667,252.4,560.833,268.514,576.917C284.627,593,292.961,593,297.127,593L301.294,593" id="my-svg-L_S_F4_0" class="edge-thickness-normal edge-pattern-solid edge-thickness-normal edge-pattern-solid flowchart-link" style=";" data-edge="true" data-et="edge" data-id="L_S_F4_0" data-points="W3sieCI6MjA0LjYxMTExMzE4ODY5NjcsInkiOjQ5Ni41fSx7IngiOjI3Ni4yOTQwMDI1MzI5NTksInkiOjU5M30seyJ4IjozMDEuMjk0MDAyNTMyOTU5LCJ5Ijo1OTN9XQ==" data-look="classic"/><path d="M195.14,496.5L208.666,532.917C222.191,569.333,249.243,642.167,268.47,678.583C287.698,715,299.101,715,304.803,715L310.505,715" id="my-svg-L_S_F5_0" class="edge-thickness-normal edge-pattern-solid edge-thickness-normal edge-pattern-solid flowchart-link" style=";" data-edge="true" data-et="edge" data-id="L_S_F5_0" data-points="W3sieCI6MTk1LjE0MDA1Nzg2MDgyNzgyLCJ5Ijo0OTYuNX0seyJ4IjoyNzYuMjk0MDAyNTMyOTU5LCJ5Ijo3MTV9LHsieCI6MzEwLjUwNDk0MDAzMjk1OSwieSI6NzE1fV0=" data-look="classic"/><path d="M191.983,496.5L206.035,553.25C220.087,610,248.19,723.5,267.707,780.25C287.224,837,298.153,837,303.618,837L309.083,837" id="my-svg-L_S_F6_0" class="edge-thickness-normal edge-pattern-solid edge-thickness-normal edge-pattern-solid flowchart-link" style=";" data-edge="true" data-et="edge" data-id="L_S_F6_0" data-points="W3sieCI6MTkxLjk4MzAzOTQxODIwNDksInkiOjQ5Ni41fSx7IngiOjI3Ni4yOTQwMDI1MzI5NTksInkiOjgzN30seyJ4IjozMDkuMDgzMDY1MDMyOTU5LCJ5Ijo4Mzd9XQ==" data-look="classic"/></g><g class="edgeLabels"><g class="edgeLabel"><g class="label" data-id="L_A_S_0" transform="translate(0, 0)"><text y="-10.1" text-anchor="middle"><tspan class="text-outer-tspan row" x="0" y="-0.1em" dy="1.1em" text-anchor="middle"/></text></g></g><g><rect class="background" style="stroke: none"/></g><g class="edgeLabel"><g class="label" data-id="L_S_AU_0" transform="translate(0, 0)"><text y="-10.1" text-anchor="middle"><tspan class="text-outer-tspan row" x="0" y="-0.1em" dy="1.1em" text-anchor="middle"/></text></g></g><g><rect class="background" style="stroke: none"/></g><g class="edgeLabel"><g class="label" data-id="L_AU_PT_0" transform="translate(0, 0)"><text y="-10.1" text-anchor="middle"><tspan class="text-outer-tspan row" x="0" y="-0.1em" dy="1.1em" text-anchor="middle"/></text></g></g><g><rect class="background" style="stroke: none"/></g><g class="edgeLabel"><g class="label" data-id="L_PT_BR_0" transform="translate(0, 0)"><text y="-10.1" text-anchor="middle"><tspan class="text-outer-tspan row" x="0" y="-0.1em" dy="1.1em" text-anchor="middle"/></text></g></g><g><rect class="background" style="stroke: none"/></g><g class="edgeLabel"><g class="label" data-id="L_PT_GQ_0" transform="translate(0, 0)"><text y="-10.1" text-anchor="middle"><tspan class="text-outer-tspan row" x="0" y="-0.1em" dy="1.1em" text-anchor="middle"/></text></g></g><g><rect class="background" style="stroke: none"/></g><g class="edgeLabel"><g class="label" data-id="L_S_F1_0" transform="translate(0, 0)"><text y="-10.1" text-anchor="middle"><tspan class="text-outer-tspan row" x="0" y="-0.1em" dy="1.1em" text-anchor="middle"/></text></g></g><g><rect class="background" style="stroke: none"/></g><g class="edgeLabel"><g class="label" data-id="L_S_F2_0" transform="translate(0, 0)"><text y="-10.1" text-anchor="middle"><tspan class="text-outer-tspan row" x="0" y="-0.1em" dy="1.1em" text-anchor="middle"/></text></g></g><g><rect class="background" style="stroke: none"/></g><g class="edgeLabel"><g class="label" data-id="L_S_F3_0" transform="translate(0, 0)"><text y="-10.1" text-anchor="middle"><tspan class="text-outer-tspan row" x="0" y="-0.1em" dy="1.1em" text-anchor="middle"/></text></g></g><g><rect class="background" style="stroke: none"/></g><g class="edgeLabel"><g class="label" data-id="L_S_F4_0" transform="translate(0, 0)"><text y="-10.1" text-anchor="middle"><tspan class="text-outer-tspan row" x="0" y="-0.1em" dy="1.1em" text-anchor="middle"/></text></g></g><g><rect class="background" style="stroke: none"/></g><g class="edgeLabel"><g class="label" data-id="L_S_F5_0" transform="translate(0, 0)"><text y="-10.1" text-anchor="middle"><tspan class="text-outer-tspan row" x="0" y="-0.1em" dy="1.1em" text-anchor="middle"/></text></g></g><g><rect class="background" style="stroke: none"/></g><g class="edgeLabel"><g class="label" data-id="L_S_F6_0" transform="translate(0, 0)"><text y="-10.1" text-anchor="middle"><tspan class="text-outer-tspan row" x="0" y="-0.1em" dy="1.1em" text-anchor="middle"/></text></g></g><g><rect class="background" style="stroke: none"/></g></g><g class="nodes"><g class="node default" id="my-svg-flowchart-A-0" data-look="classic" transform="translate(39.02200126647949, 471)"><g class="basic label-container outer-path"><path d="M-13.03125 -18 C-3.534496812627385 -18, 5.96225637474523 -18, 13.03125 -18 C13.03125 -18, 13.031249999999998 -18, 13.031249999999998 -18 C13.466064161746836 -17.986056356147202, 13.900878323493675 -17.972112712294404, 14.184513959652831 -17.963017069506055 C14.484289785168416 -17.934098056151743, 14.784065610684 -17.905179042797432, 15.333038910321106 -17.85222024881843 C15.6516059929861 -17.800716793417777, 15.970173075651095 -17.749213338017125, 16.4721053166247 -17.668064825839178 C16.905012749875382 -17.56925652918472, 17.337920183126066 -17.470448232530263, 17.59703251037113 -17.41130753470253 C18.03123891051352 -17.282437354336174, 18.465445310655905 -17.153567173969815, 18.703197924425172 -17.083003446192034 C18.939996361001267 -16.995859432591278, 19.17679479757736 -16.908715418990525, 19.786056087828733 -16.68450163222839 C20.197108271613207 -16.502541023896804, 20.60816045539768 -16.320580415565217, 20.841157304116045 -16.217439622243546 C21.1541572210545 -16.05414776606277, 21.46715713799296 -15.890855909881989, 21.864165936070876 -15.683736674221011 C22.142994787130167 -15.51470898612866, 22.42182363818946 -15.345681298036311, 22.850878221789877 -15.085585888053133 C23.09507942990542 -14.915241696571648, 23.339280638020966 -14.744897505090163, 23.797239548841887 -14.425445193623219 C24.107213059828258 -14.178249567353141, 24.417186570814625 -13.931053941083064, 24.699361115540185 -13.706027250644421 C24.930995900405872 -13.49566266774997, 25.16263068527156 -13.285298084855517, 25.553535910862756 -12.930288301759097 C25.741762113627193 -12.735929293746171, 25.929988316391626 -12.541570285733247, 26.356253947355675 -12.101416024703706 C26.57808731218191 -11.840837931702769, 26.799920677008142 -11.580259838701831, 27.104216684424536 -11.222816433457204 C27.32204613520726 -10.930944814079567, 27.539875585989982 -10.639073194701929, 27.794350582745203 -10.298099882199057 C27.933507291055385 -10.084317809426311, 28.072663999365563 -9.870535736653565, 28.423819734096227 -9.331066229589453 C28.57587422652478 -9.061078081095593, 28.72792871895333 -8.791089932601732, 28.990037514714004 -8.325689224335035 C29.17928867383425 -7.932705143095727, 29.368539832954497 -7.53972106185642, 29.490677214284624 -7.286100176203093 C29.624775454964492 -6.954874929110707, 29.75887369564436 -6.623649682018321, 29.923681596895683 -6.216570979583546 C30.02551231811892 -5.909873071781253, 30.127343039342154 -5.60317516397896, 30.28727135465989 -5.121496559358589 C30.40071585092649 -4.688883527938356, 30.514160347193084 -4.2562704965181215, 30.579952419272825 -4.005376811213661 C30.656689091947324 -3.6113502153316084, 30.733425764621828 -3.217323619449556, 30.8005221014601 -2.872798110600833 C30.858416399269856 -2.423781369310586, 30.91631069707961 -1.9747646280203393, 30.948074033085568 -1.728414466338275 C30.96494219863131 -1.4656791722251787, 30.981810364177054 -1.2029438781120825, 31.022001891612383 -0.576928396289793 C31.022001891612383 -0.2090891646032591, 31.022001891612383 0.15875006708327477, 31.022001891612383 0.5769283962897886 C31.001518665878834 0.8959711708520606, 30.98103544014528 1.2150139454143325, 30.948074033085568 1.7284144663382628 C30.9177776894311 1.9633869250325533, 30.88748134577664 2.1983593837268436, 30.800522101460103 2.8727981106008205 C30.73907113877951 3.1883358163001034, 30.677620176098916 3.5038735219993864, 30.579952419272825 4.005376811213657 C30.48084383505055 4.383320796785313, 30.38173525082827 4.761264782356969, 30.287271354659893 5.121496559358577 C30.142891125142807 5.556346806798449, 29.998510895625724 5.99119705423832, 29.923681596895687 6.216570979583534 C29.794550320689968 6.535527728395049, 29.665419044484246 6.854484477206564, 29.490677214284624 7.286100176203088 C29.312031894101413 7.657061005961043, 29.1333865739182 8.028021835718999, 28.990037514714004 8.325689224335031 C28.833118962661857 8.604314003230037, 28.676200410609706 8.882938782125045, 28.42381973409623 9.33106622958945 C28.279685504056665 9.552495112390266, 28.135551274017097 9.773923995191083, 27.79435058274521 10.298099882199049 C27.550038978704738 10.62545517436828, 27.30572737466426 10.952810466537512, 27.10421668442454 11.2228164334572 C26.886547672409932 11.478502840687213, 26.668878660395325 11.734189247917227, 26.356253947355682 12.101416024703695 C26.10944778972122 12.356263645623667, 25.862641632086756 12.611111266543636, 25.55353591086276 12.930288301759093 C25.27534176189202 13.182936867240485, 24.99714761292128 13.43558543272188, 24.699361115540203 13.706027250644409 C24.351102204215398 13.983754464867099, 24.002843292890596 14.261481679089789, 23.797239548841894 14.425445193623217 C23.596983831430943 14.565134913158808, 23.396728114019993 14.704824632694397, 22.850878221789884 15.085585888053126 C22.625910891810324 15.221962405541513, 22.40094356183077 15.358338923029898, 21.864165936070883 15.68373667422101 C21.655322797280945 15.792690005957306, 21.446479658491004 15.901643337693601, 20.84115730411605 16.217439622243543 C20.580651025104444 16.332758024317776, 20.32014474609284 16.44807642639201, 19.78605608782874 16.68450163222839 C19.523673522432187 16.781060841732167, 19.261290957035634 16.877620051235947, 18.703197924425183 17.08300344619203 C18.400437835213552 17.172861051449907, 18.097677746001917 17.262718656707783, 17.59703251037115 17.411307534702527 C17.334836712825176 17.471152014504916, 17.0726409152792 17.530996494307303, 16.472105316624706 17.668064825839174 C16.181822837228687 17.714995445933674, 15.891540357832667 17.761926066028174, 15.333038910321118 17.85222024881843 C14.988351309260773 17.88547184714523, 14.64366370820043 17.918723445472033, 14.184513959652831 17.963017069506055 C13.920802923797016 17.971473769143557, 13.6570918879412 17.979930468781063, 13.031250000000004 18 C13.031250000000002 18, 13.03125 18, 13.03125 18 C3.382587077549994 18, -6.266075844900012 18, -13.031249999999996 18 C-13.383491356362523 17.988704305297663, -13.735732712725051 17.977408610595322, -14.184513959652826 17.963017069506055 C-14.583125363094688 17.92456350681637, -14.981736766536548 17.886109944126684, -15.333038910321111 17.85222024881843 C-15.59292912297664 17.810203214714985, -15.852819335632168 17.768186180611536, -16.4721053166247 17.668064825839174 C-16.809249710327176 17.59111381804936, -17.146394104029653 17.51416281025955, -17.59703251037113 17.41130753470253 C-17.904659306574217 17.320005516355458, -18.21228610277731 17.228703498008386, -18.70319792442516 17.083003446192038 C-19.044419744132874 16.957430662319677, -19.385641563840583 16.831857878447313, -19.786056087828737 16.68450163222839 C-20.142842624068773 16.526562816331484, -20.499629160308814 16.36862400043458, -20.841157304116045 16.217439622243546 C-21.120397875694238 16.071759994913325, -21.39963844727243 15.926080367583104, -21.864165936070876 15.683736674221013 C-22.08434510483934 15.55026276819715, -22.304524273607807 15.416788862173288, -22.850878221789863 15.085585888053139 C-23.044799950824824 14.9503144846147, -23.238721679859786 14.815043081176261, -23.797239548841887 14.42544519362322 C-24.0999350247786 14.184053606628598, -24.40263050071531 13.942662019633977, -24.699361115540185 13.706027250644423 C-24.94306394091948 13.484702792658366, -25.186766766298778 13.26337833467231, -25.55353591086275 12.930288301759106 C-25.85209132459611 12.622005325224087, -26.150646738329467 12.313722348689069, -26.356253947355682 12.101416024703703 C-26.536494260480147 11.889695496943352, -26.716734573604608 11.677974969183001, -27.104216684424536 11.222816433457206 C-27.373173197990173 10.8624392077217, -27.642129711555814 10.502061981986193, -27.794350582745203 10.29809988219906 C-27.99002900821713 9.997485273659663, -28.185707433689057 9.696870665120265, -28.423819734096224 9.33106622958946 C-28.55755447232426 9.09360665975488, -28.6912892105523 8.856147089920299, -28.990037514714 8.325689224335036 C-29.10315354860711 8.090801359660592, -29.21626958250022 7.855913494986148, -29.490677214284624 7.286100176203095 C-29.602567326248245 7.0097294364048, -29.714457438211866 6.733358696606506, -29.923681596895683 6.2165709795835475 C-30.06786379899111 5.782317159186331, -30.21204600108653 5.348063338789114, -30.28727135465989 5.121496559358584 C-30.398394310543484 4.6977365675807015, -30.509517266427082 4.27397657580282, -30.57995241927282 4.005376811213663 C-30.640345342663355 3.695271913652147, -30.700738266053893 3.38516701609063, -30.8005221014601 2.8727981106008347 C-30.844760202205308 2.529696137022069, -30.88899830295052 2.1865941634433037, -30.948074033085565 1.7284144663382852 C-30.967792008197993 1.4212910878991671, -30.987509983310424 1.114167709460049, -31.022001891612383 0.5769283962897952 C-31.022001891612383 0.26502618505277, -31.022001891612383 -0.04687602618425524, -31.022001891612383 -0.5769283962897864 C-31.00300002680325 -0.8728977787212329, -30.98399816199412 -1.1688671611526793, -30.948074033085568 -1.7284144663382603 C-30.902592734156517 -2.081158439533657, -30.857111435227466 -2.4339024127290534, -30.800522101460103 -2.8727981106008262 C-30.741011170827953 -3.1783741617572647, -30.681500240195806 -3.4839502129137028, -30.579952419272825 -4.005376811213655 C-30.515534766782576 -4.251029238946164, -30.45111711429233 -4.496681666678674, -30.287271354659893 -5.121496559358575 C-30.169291468301488 -5.476833179527954, -30.051311581943086 -5.8321697996973345, -29.92368159689569 -6.2165709795835244 C-29.783499019874057 -6.562824655072707, -29.643316442852427 -6.90907833056189, -29.490677214284624 -7.286100176203086 C-29.294360880224424 -7.693755244375738, -29.09804454616422 -8.10141031254839, -28.990037514714004 -8.32568922433503 C-28.874564725668357 -8.530722854173401, -28.759091936622706 -8.735756484011773, -28.423819734096227 -9.331066229589455 C-28.26016301689342 -9.582486895194835, -28.096506299690613 -9.833907560800213, -27.794350582745206 -10.298099882199054 C-27.626487499033626 -10.523021121731047, -27.45862441532205 -10.747942361263037, -27.104216684424543 -11.2228164334572 C-26.807388762230325 -11.571487400853774, -26.510560840036103 -11.920158368250348, -26.356253947355686 -12.101416024703695 C-26.14803806495022 -12.316416018129203, -25.939822182544756 -12.531416011554711, -25.553535910862763 -12.930288301759086 C-25.301564897466076 -13.159121709338274, -25.049593884069385 -13.387955116917464, -24.699361115540206 -13.706027250644407 C-24.357647761971293 -13.97853455674138, -24.01593440840238 -14.251041862838353, -23.797239548841894 -14.425445193623215 C-23.575305562070284 -14.580256735427648, -23.35337157529867 -14.735068277232081, -22.850878221789888 -15.085585888053124 C-22.62314815635305 -15.22363719201135, -22.395418090916213 -15.361688495969572, -21.864165936070883 -15.683736674221008 C-21.460236751878472 -15.894466270885198, -21.056307567686062 -16.105195867549387, -20.841157304116052 -16.217439622243543 C-20.549500383194964 -16.346547489440145, -20.257843462273872 -16.475655356636747, -19.786056087828744 -16.684501632228386 C-19.47493723878027 -16.79899624462934, -19.163818389731794 -16.913490857030293, -18.703197924425186 -17.08300344619203 C-18.295603255849546 -17.203975404317205, -17.888008587273905 -17.32494736244238, -17.59703251037115 -17.411307534702523 C-17.366684429353157 -17.463882981033173, -17.13633634833516 -17.516458427363826, -16.47210531662471 -17.668064825839174 C-16.086535846519645 -17.73040070762986, -15.700966376414579 -17.792736589420553, -15.33303891032112 -17.85222024881843 C-14.93117272360215 -17.890987796536407, -14.529306536883182 -17.929755344254385, -14.184513959652833 -17.963017069506055 C-13.905200189203391 -17.971974118473096, -13.625886418753948 -17.980931167440136, -13.031250000000005 -18 C-13.031250000000004 -18, -13.031250000000002 -18, -13.03125 -18" stroke="none" stroke-width="0" fill="#f7f5f0" style=""/><path d="M-13.03125 -18 C-5.358753116427016 -18, 2.3137437671459686 -18, 13.03125 -18 M-13.03125 -18 C-3.4510207668934463 -18, 6.129208466213107 -18, 13.03125 -18 M13.03125 -18 C13.03125 -18, 13.031249999999998 -18, 13.031249999999998 -18 M13.03125 -18 C13.03125 -18, 13.031249999999998 -18, 13.031249999999998 -18 M13.031249999999998 -18 C13.417982854010944 -17.987598230101703, 13.80471570802189 -17.97519646020341, 14.184513959652831 -17.963017069506055 M13.031249999999998 -18 C13.387736534108884 -17.988568170710074, 13.744223068217767 -17.977136341420145, 14.184513959652831 -17.963017069506055 M14.184513959652831 -17.963017069506055 C14.516225998208645 -17.93101720808867, 14.84793803676446 -17.899017346671283, 15.333038910321106 -17.85222024881843 M14.184513959652831 -17.963017069506055 C14.540918058324728 -17.928635194745816, 14.897322156996626 -17.89425331998558, 15.333038910321106 -17.85222024881843 M15.333038910321106 -17.85222024881843 C15.642033379263463 -17.802264419367724, 15.951027848205822 -17.75230858991702, 16.4721053166247 -17.668064825839178 M15.333038910321106 -17.85222024881843 C15.714493562559213 -17.790549618869584, 16.095948214797318 -17.728878988920737, 16.4721053166247 -17.668064825839178 M16.4721053166247 -17.668064825839178 C16.89349874618322 -17.57188452539156, 17.31489217574174 -17.475704224943943, 17.59703251037113 -17.41130753470253 M16.4721053166247 -17.668064825839178 C16.862009997125256 -17.579071626880747, 17.251914677625813 -17.49007842792232, 17.59703251037113 -17.41130753470253 M17.59703251037113 -17.41130753470253 C18.005317940677138 -17.290130562121664, 18.413603370983147 -17.1689535895408, 18.703197924425172 -17.083003446192034 M17.59703251037113 -17.41130753470253 C17.911952659256485 -17.31784088756295, 18.226872808141838 -17.22437424042337, 18.703197924425172 -17.083003446192034 M18.703197924425172 -17.083003446192034 C18.983715941165748 -16.97977022295138, 19.264233957906324 -16.876536999710726, 19.786056087828733 -16.68450163222839 M18.703197924425172 -17.083003446192034 C19.13526684994288 -16.923998087600154, 19.56733577546059 -16.76499272900827, 19.786056087828733 -16.68450163222839 M19.786056087828733 -16.68450163222839 C20.166447588976286 -16.51611359858333, 20.54683909012384 -16.347725564938276, 20.841157304116045 -16.217439622243546 M19.786056087828733 -16.68450163222839 C20.060511869610796 -16.56300819907497, 20.33496765139286 -16.441514765921557, 20.841157304116045 -16.217439622243546 M20.841157304116045 -16.217439622243546 C21.2292593581625 -16.01496702923874, 21.617361412208954 -15.812494436233933, 21.864165936070876 -15.683736674221011 M20.841157304116045 -16.217439622243546 C21.206113911129055 -16.02704199413072, 21.57107051814207 -15.836644366017897, 21.864165936070876 -15.683736674221011 M21.864165936070876 -15.683736674221011 C22.11634484707238 -15.530864336404122, 22.368523758073888 -15.377991998587234, 22.850878221789877 -15.085585888053133 M21.864165936070876 -15.683736674221011 C22.19696586792727 -15.481991399780183, 22.52976579978366 -15.280246125339353, 22.850878221789877 -15.085585888053133 M22.850878221789877 -15.085585888053133 C23.120644758317788 -14.897408430176412, 23.3904112948457 -14.709230972299691, 23.797239548841887 -14.425445193623219 M22.850878221789877 -15.085585888053133 C23.20446981730946 -14.83893569775214, 23.55806141282904 -14.592285507451146, 23.797239548841887 -14.425445193623219 M23.797239548841887 -14.425445193623219 C24.084555389511745 -14.19631845648463, 24.371871230181604 -13.967191719346038, 24.699361115540185 -13.706027250644421 M23.797239548841887 -14.425445193623219 C24.059060384307717 -14.21665004468426, 24.320881219773547 -14.007854895745302, 24.699361115540185 -13.706027250644421 M24.699361115540185 -13.706027250644421 C24.957205167551862 -13.47186010478719, 25.21504921956354 -13.237692958929957, 25.553535910862756 -12.930288301759097 M24.699361115540185 -13.706027250644421 C24.924835526642827 -13.501257356207011, 25.150309937745465 -13.2964874617696, 25.553535910862756 -12.930288301759097 M25.553535910862756 -12.930288301759097 C25.716027369936125 -12.76250252946895, 25.87851882900949 -12.594716757178803, 26.356253947355675 -12.101416024703706 M25.553535910862756 -12.930288301759097 C25.870313819664375 -12.603189102971431, 26.18709172846599 -12.276089904183767, 26.356253947355675 -12.101416024703706 M26.356253947355675 -12.101416024703706 C26.63348886484147 -11.775760115511197, 26.910723782327267 -11.450104206318688, 27.104216684424536 -11.222816433457204 M26.356253947355675 -12.101416024703706 C26.571768314144354 -11.848260586358856, 26.787282680933032 -11.595105148014007, 27.104216684424536 -11.222816433457204 M27.104216684424536 -11.222816433457204 C27.266801325685392 -11.004967825933182, 27.42938596694625 -10.787119218409162, 27.794350582745203 -10.298099882199057 M27.104216684424536 -11.222816433457204 C27.25078839945509 -11.026423688274198, 27.397360114485643 -10.83003094309119, 27.794350582745203 -10.298099882199057 M27.794350582745203 -10.298099882199057 C27.958181260144823 -10.04641196701652, 28.122011937544443 -9.794724051833983, 28.423819734096227 -9.331066229589453 M27.794350582745203 -10.298099882199057 C27.962393012165105 -10.039941584899594, 28.130435441585004 -9.781783287600131, 28.423819734096227 -9.331066229589453 M28.423819734096227 -9.331066229589453 C28.59023404814176 -9.035580763725024, 28.756648362187295 -8.740095297860595, 28.990037514714004 -8.325689224335035 M28.423819734096227 -9.331066229589453 C28.597604442817723 -9.022493881644461, 28.771389151539218 -8.713921533699471, 28.990037514714004 -8.325689224335035 M28.990037514714004 -8.325689224335035 C29.11769657888827 -8.060602446110765, 29.24535564306254 -7.795515667886496, 29.490677214284624 -7.286100176203093 M28.990037514714004 -8.325689224335035 C29.16031789328777 -7.9720983748101775, 29.33059827186153 -7.618507525285319, 29.490677214284624 -7.286100176203093 M29.490677214284624 -7.286100176203093 C29.600348547842536 -7.01520986196406, 29.71001988140045 -6.744319547725027, 29.923681596895683 -6.216570979583546 M29.490677214284624 -7.286100176203093 C29.64530741839442 -6.904160582480279, 29.799937622504213 -6.522220988757464, 29.923681596895683 -6.216570979583546 M29.923681596895683 -6.216570979583546 C30.022463413897203 -5.919055885520148, 30.12124523089872 -5.62154079145675, 30.28727135465989 -5.121496559358589 M29.923681596895683 -6.216570979583546 C30.00622086505961 -5.96797585472026, 30.088760133223538 -5.719380729856975, 30.28727135465989 -5.121496559358589 M30.28727135465989 -5.121496559358589 C30.367313058453654 -4.816262852499108, 30.447354762247414 -4.511029145639626, 30.579952419272825 -4.005376811213661 M30.28727135465989 -5.121496559358589 C30.387110121658406 -4.7407680703979205, 30.48694888865692 -4.360039581437252, 30.579952419272825 -4.005376811213661 M30.579952419272825 -4.005376811213661 C30.65009862987679 -3.645190845169155, 30.720244840480756 -3.28500487912465, 30.8005221014601 -2.872798110600833 M30.579952419272825 -4.005376811213661 C30.661753453487997 -3.585345789173446, 30.74355448770317 -3.165314767133231, 30.8005221014601 -2.872798110600833 M30.8005221014601 -2.872798110600833 C30.83214092852868 -2.6275687317005634, 30.863759755597258 -2.382339352800294, 30.948074033085568 -1.728414466338275 M30.8005221014601 -2.872798110600833 C30.83225013649867 -2.626721736250887, 30.863978171537237 -2.3806453619009402, 30.948074033085568 -1.728414466338275 M30.948074033085568 -1.728414466338275 C30.96918428403311 -1.399605267942479, 30.99029453498065 -1.0707960695466832, 31.022001891612383 -0.576928396289793 M30.948074033085568 -1.728414466338275 C30.971079738207095 -1.3700820391995712, 30.994085443328622 -1.0117496120608673, 31.022001891612383 -0.576928396289793 M31.022001891612383 -0.576928396289793 C31.022001891612383 -0.34145876548245424, 31.022001891612383 -0.1059891346751155, 31.022001891612383 0.5769283962897886 M31.022001891612383 -0.576928396289793 C31.022001891612383 -0.21110264218049435, 31.022001891612383 0.15472311192880428, 31.022001891612383 0.5769283962897886 M31.022001891612383 0.5769283962897886 C31.005497202635354 0.8340022494521725, 30.988992513658324 1.0910761026145563, 30.948074033085568 1.7284144663382628 M31.022001891612383 0.5769283962897886 C30.999154725488474 0.9327914505702495, 30.976307559364564 1.2886545048507103, 30.948074033085568 1.7284144663382628 M30.948074033085568 1.7284144663382628 C30.891097492420215 2.1703132644481973, 30.83412095175486 2.6122120625581315, 30.800522101460103 2.8727981106008205 M30.948074033085568 1.7284144663382628 C30.900357156183127 2.0984971408304625, 30.85264027928069 2.468579815322662, 30.800522101460103 2.8727981106008205 M30.800522101460103 2.8727981106008205 C30.712707935811164 3.3237052916776357, 30.624893770162227 3.774612472754451, 30.579952419272825 4.005376811213657 M30.800522101460103 2.8727981106008205 C30.730257576214516 3.2335915973242395, 30.65999305096893 3.5943850840476586, 30.579952419272825 4.005376811213657 M30.579952419272825 4.005376811213657 C30.49992428821152 4.31055875936181, 30.41989615715022 4.615740707509962, 30.287271354659893 5.121496559358577 M30.579952419272825 4.005376811213657 C30.469176345236637 4.427813992167826, 30.358400271200452 4.850251173121994, 30.287271354659893 5.121496559358577 M30.287271354659893 5.121496559358577 C30.164333921561454 5.4917645204311345, 30.041396488463015 5.862032481503691, 29.923681596895687 6.216570979583534 M30.287271354659893 5.121496559358577 C30.171098307719213 5.471391267082533, 30.054925260778536 5.821285974806489, 29.923681596895687 6.216570979583534 M29.923681596895687 6.216570979583534 C29.79671400416369 6.530183388382978, 29.669746411431692 6.8437957971824215, 29.490677214284624 7.286100176203088 M29.923681596895687 6.216570979583534 C29.77548777285061 6.5826125901075505, 29.627293948805534 6.948654200631567, 29.490677214284624 7.286100176203088 M29.490677214284624 7.286100176203088 C29.34261448201733 7.593555607791092, 29.19455174975003 7.901011039379096, 28.990037514714004 8.325689224335031 M29.490677214284624 7.286100176203088 C29.320248337545706 7.639999385345243, 29.149819460806786 7.9938985944873995, 28.990037514714004 8.325689224335031 M28.990037514714004 8.325689224335031 C28.799789829243064 8.663493254555828, 28.609542143772124 9.001297284776625, 28.42381973409623 9.33106622958945 M28.990037514714004 8.325689224335031 C28.781785585120797 8.69546161312232, 28.57353365552759 9.065234001909612, 28.42381973409623 9.33106622958945 M28.42381973409623 9.33106622958945 C28.221893073840366 9.64127980464294, 28.019966413584502 9.95149337969643, 27.79435058274521 10.298099882199049 M28.42381973409623 9.33106622958945 C28.2713604172819 9.565284681275113, 28.118901100467575 9.799503132960776, 27.79435058274521 10.298099882199049 M27.79435058274521 10.298099882199049 C27.527947149596486 10.655056212766302, 27.26154371644776 11.012012543333555, 27.10421668442454 11.2228164334572 M27.79435058274521 10.298099882199049 C27.525890635509988 10.65781175428992, 27.257430688274766 11.017523626380791, 27.10421668442454 11.2228164334572 M27.10421668442454 11.2228164334572 C26.918299337887596 11.4412055276962, 26.732381991350653 11.6595946219352, 26.356253947355682 12.101416024703695 M27.10421668442454 11.2228164334572 C26.81565567919319 11.561776609788287, 26.527094673961837 11.900736786119374, 26.356253947355682 12.101416024703695 M26.356253947355682 12.101416024703695 C26.168469933366673 12.29531843650162, 25.980685919377663 12.489220848299546, 25.55353591086276 12.930288301759093 M26.356253947355682 12.101416024703695 C26.145202845984116 12.319343614487511, 25.93415174461255 12.53727120427133, 25.55353591086276 12.930288301759093 M25.55353591086276 12.930288301759093 C25.23252140966969 13.221825178164371, 24.91150690847662 13.51336205456965, 24.699361115540203 13.706027250644409 M25.55353591086276 12.930288301759093 C25.30141278783265 13.159259851282753, 25.04928966480254 13.388231400806411, 24.699361115540203 13.706027250644409 M24.699361115540203 13.706027250644409 C24.378475355231224 13.96192510536212, 24.05758959492224 14.21782296007983, 23.797239548841894 14.425445193623217 M24.699361115540203 13.706027250644409 C24.40056945400833 13.944305649536037, 24.101777792476454 14.182584048427668, 23.797239548841894 14.425445193623217 M23.797239548841894 14.425445193623217 C23.5721255601856 14.582474967082339, 23.347011571529308 14.739504740541461, 22.850878221789884 15.085585888053126 M23.797239548841894 14.425445193623217 C23.516151811741267 14.621519830932591, 23.235064074640636 14.817594468241964, 22.850878221789884 15.085585888053126 M22.850878221789884 15.085585888053126 C22.533444537939545 15.27801605265059, 22.216010854089205 15.470446217248055, 21.864165936070883 15.68373667422101 M22.850878221789884 15.085585888053126 C22.516702784192134 15.288165002157736, 22.182527346594384 15.490744116262347, 21.864165936070883 15.68373667422101 M21.864165936070883 15.68373667422101 C21.547797651767088 15.848785805498741, 21.231429367463296 16.013834936776473, 20.84115730411605 16.217439622243543 M21.864165936070883 15.68373667422101 C21.507562049026852 15.86977669367619, 21.150958161982818 16.05581671313137, 20.84115730411605 16.217439622243543 M20.84115730411605 16.217439622243543 C20.607862741388146 16.320712204725865, 20.374568178660244 16.423984787208187, 19.78605608782874 16.68450163222839 M20.84115730411605 16.217439622243543 C20.625714801749147 16.312809627166605, 20.41027229938225 16.408179632089666, 19.78605608782874 16.68450163222839 M19.78605608782874 16.68450163222839 C19.530354377621727 16.778602225265267, 19.274652667414717 16.872702818302148, 18.703197924425183 17.08300344619203 M19.78605608782874 16.68450163222839 C19.526941810880977 16.779858081371284, 19.267827533933215 16.87521453051418, 18.703197924425183 17.08300344619203 M18.703197924425183 17.08300344619203 C18.479528532009024 17.149387347796548, 18.255859139592864 17.215771249401065, 17.59703251037115 17.411307534702527 M18.703197924425183 17.08300344619203 C18.39039859965477 17.17584064386673, 18.077599274884353 17.26867784154143, 17.59703251037115 17.411307534702527 M17.59703251037115 17.411307534702527 C17.20800555543122 17.500100398529437, 16.81897860049129 17.588893262356347, 16.472105316624706 17.668064825839174 M17.59703251037115 17.411307534702527 C17.255931859356995 17.48916153240674, 16.91483120834284 17.56701553011095, 16.472105316624706 17.668064825839174 M16.472105316624706 17.668064825839174 C16.16592290522564 17.717566023634113, 15.859740493826573 17.767067221429052, 15.333038910321118 17.85222024881843 M16.472105316624706 17.668064825839174 C16.159053265716516 17.718676653675097, 15.846001214808325 17.769288481511023, 15.333038910321118 17.85222024881843 M15.333038910321118 17.85222024881843 C15.032826129068598 17.881181414767166, 14.732613347816075 17.910142580715902, 14.184513959652831 17.963017069506055 M15.333038910321118 17.85222024881843 C14.911058518340177 17.892928189727158, 14.489078126359235 17.93363613063589, 14.184513959652831 17.963017069506055 M14.184513959652831 17.963017069506055 C13.939721622933975 17.97086708328525, 13.694929286215118 17.978717097064447, 13.031250000000004 18 M14.184513959652831 17.963017069506055 C13.807976661161312 17.975091887783286, 13.431439362669794 17.98716670606052, 13.031250000000004 18 M13.031250000000004 18 C13.031250000000004 18, 13.031250000000002 18, 13.03125 18 M13.031250000000004 18 C13.031250000000002 18, 13.031250000000002 18, 13.03125 18 M13.03125 18 C2.704427559276784 18, -7.622394881446432 18, -13.031249999999996 18 M13.03125 18 C4.04783051756114 18, -4.93558896487772 18, -13.031249999999996 18 M-13.031249999999996 18 C-13.380590992863874 17.98879731430985, -13.729931985727752 17.977594628619695, -14.184513959652826 17.963017069506055 M-13.031249999999996 18 C-13.296175337414336 17.99150436007501, -13.561100674828674 17.983008720150018, -14.184513959652826 17.963017069506055 M-14.184513959652826 17.963017069506055 C-14.52454448789648 17.93021473339293, -14.864575016140135 17.897412397279805, -15.333038910321111 17.85222024881843 M-14.184513959652826 17.963017069506055 C-14.419333233006665 17.940364336617105, -14.654152506360502 17.917711603728154, -15.333038910321111 17.85222024881843 M-15.333038910321111 17.85222024881843 C-15.719881086097212 17.789678605844827, -16.106723261873313 17.727136962871224, -16.4721053166247 17.668064825839174 M-15.333038910321111 17.85222024881843 C-15.641599300755573 17.80233459781455, -15.950159691190036 17.752448946810674, -16.4721053166247 17.668064825839174 M-16.4721053166247 17.668064825839174 C-16.84576382512221 17.582779709624262, -17.219422333619722 17.49749459340935, -17.59703251037113 17.41130753470253 M-16.4721053166247 17.668064825839174 C-16.735652299509358 17.607911946800538, -16.999199282394013 17.547759067761906, -17.59703251037113 17.41130753470253 M-17.59703251037113 17.41130753470253 C-17.966105943796485 17.30176847696787, -18.335179377221838 17.19222941923321, -18.70319792442516 17.083003446192038 M-17.59703251037113 17.41130753470253 C-17.93795555708423 17.31012336397967, -18.278878603797335 17.208939193256814, -18.70319792442516 17.083003446192038 M-18.70319792442516 17.083003446192038 C-18.95274754612641 16.991166878594562, -19.20229716782766 16.899330310997087, -19.786056087828737 16.68450163222839 M-18.70319792442516 17.083003446192038 C-19.017022907471986 16.967512951464464, -19.33084789051881 16.85202245673689, -19.786056087828737 16.68450163222839 M-19.786056087828737 16.68450163222839 C-20.066384820886803 16.560408417759994, -20.34671355394487 16.4363152032916, -20.841157304116045 16.217439622243546 M-19.786056087828737 16.68450163222839 C-20.047357628689863 16.568831191323977, -20.308659169550992 16.453160750419563, -20.841157304116045 16.217439622243546 M-20.841157304116045 16.217439622243546 C-21.23907792922586 16.00984468700408, -21.636998554335676 15.802249751764615, -21.864165936070876 15.683736674221013 M-20.841157304116045 16.217439622243546 C-21.238526594588862 16.010132317931056, -21.635895885061675 15.802825013618566, -21.864165936070876 15.683736674221013 M-21.864165936070876 15.683736674221013 C-22.118343581503915 15.52965269184586, -22.372521226936954 15.375568709470706, -22.850878221789863 15.085585888053139 M-21.864165936070876 15.683736674221013 C-22.20334926417951 15.478121747459072, -22.54253259228815 15.27250682069713, -22.850878221789863 15.085585888053139 M-22.850878221789863 15.085585888053139 C-23.08879280324676 14.919626975185043, -23.326707384703663 14.75366806231695, -23.797239548841887 14.42544519362322 M-22.850878221789863 15.085585888053139 C-23.150811864128258 14.876365163075988, -23.450745506466653 14.667144438098838, -23.797239548841887 14.42544519362322 M-23.797239548841887 14.42544519362322 C-24.023398157191014 14.245089721798115, -24.249556765540138 14.064734249973009, -24.699361115540185 13.706027250644423 M-23.797239548841887 14.42544519362322 C-24.127879116616157 14.161768937011658, -24.458518684390427 13.898092680400097, -24.699361115540185 13.706027250644423 M-24.699361115540185 13.706027250644423 C-25.021908072457713 13.413098638496752, -25.34445502937524 13.12017002634908, -25.55353591086275 12.930288301759106 M-24.699361115540185 13.706027250644423 C-25.02750474494824 13.408015888620696, -25.355648374356292 13.110004526596969, -25.55353591086275 12.930288301759106 M-25.55353591086275 12.930288301759106 C-25.869035079174214 12.604509507514068, -26.184534247485683 12.278730713269033, -26.356253947355682 12.101416024703703 M-25.55353591086275 12.930288301759106 C-25.75871203535096 12.718427107951928, -25.963888159839172 12.506565914144751, -26.356253947355682 12.101416024703703 M-26.356253947355682 12.101416024703703 C-26.616697589434025 11.795484103055426, -26.877141231512365 11.489552181407149, -27.104216684424536 11.222816433457206 M-26.356253947355682 12.101416024703703 C-26.537812129549785 11.88814745294528, -26.719370311743887 11.674878881186856, -27.104216684424536 11.222816433457206 M-27.104216684424536 11.222816433457206 C-27.26267780726608 11.010492964954809, -27.42113893010762 10.798169496452411, -27.794350582745203 10.29809988219906 M-27.104216684424536 11.222816433457206 C-27.294992700582913 10.967193951857594, -27.48576871674129 10.711571470257981, -27.794350582745203 10.29809988219906 M-27.794350582745203 10.29809988219906 C-27.94360450145761 10.068805782767855, -28.09285842017002 9.83951168333665, -28.423819734096224 9.33106622958946 M-27.794350582745203 10.29809988219906 C-28.02776780095639 9.939508353727375, -28.26118501916758 9.580916825255688, -28.423819734096224 9.33106622958946 M-28.423819734096224 9.33106622958946 C-28.592559763618763 9.031451220391375, -28.761299793141305 8.731836211193292, -28.990037514714 8.325689224335036 M-28.423819734096224 9.33106622958946 C-28.637321566491554 8.951972106766696, -28.85082339888688 8.572877983943933, -28.990037514714 8.325689224335036 M-28.990037514714 8.325689224335036 C-29.14063691264048 8.01296635222979, -29.291236310566962 7.700243480124544, -29.490677214284624 7.286100176203095 M-28.990037514714 8.325689224335036 C-29.171921754105007 7.948002709540331, -29.35380599349601 7.570316194745625, -29.490677214284624 7.286100176203095 M-29.490677214284624 7.286100176203095 C-29.602087428951567 7.010914792005779, -29.71349764361851 6.735729407808463, -29.923681596895683 6.2165709795835475 M-29.490677214284624 7.286100176203095 C-29.59792872894188 7.021186861432701, -29.705180243599134 6.756273546662307, -29.923681596895683 6.2165709795835475 M-29.923681596895683 6.2165709795835475 C-30.060552930414573 5.804336330510132, -30.197424263933463 5.392101681436716, -30.28727135465989 5.121496559358584 M-29.923681596895683 6.2165709795835475 C-30.046045813301966 5.84802945585809, -30.168410029708244 5.479487932132633, -30.28727135465989 5.121496559358584 M-30.28727135465989 5.121496559358584 C-30.385616698639303 4.74646313962338, -30.483962042618714 4.371429719888176, -30.57995241927282 4.005376811213663 M-30.28727135465989 5.121496559358584 C-30.35933647560286 4.846681019982057, -30.431401596545825 4.571865480605531, -30.57995241927282 4.005376811213663 M-30.57995241927282 4.005376811213663 C-30.635529621853564 3.719999622207477, -30.691106824434307 3.434622433201291, -30.8005221014601 2.8727981106008347 M-30.57995241927282 4.005376811213663 C-30.644993899337873 3.671402557601298, -30.710035379402928 3.337428303988933, -30.8005221014601 2.8727981106008347 M-30.8005221014601 2.8727981106008347 C-30.85817088283366 2.425685546306977, -30.915819664207227 1.97857298201312, -30.948074033085565 1.7284144663382852 M-30.8005221014601 2.8727981106008347 C-30.842772124323684 2.5451152764815603, -30.88502214718727 2.2174324423622855, -30.948074033085565 1.7284144663382852 M-30.948074033085565 1.7284144663382852 C-30.965781452521934 1.4526071154451432, -30.983488871958304 1.1767997645520012, -31.022001891612383 0.5769283962897952 M-30.948074033085565 1.7284144663382852 C-30.965541850825723 1.4563391052666375, -30.98300966856588 1.18426374419499, -31.022001891612383 0.5769283962897952 M-31.022001891612383 0.5769283962897952 C-31.022001891612383 0.1838297704326442, -31.022001891612383 -0.2092688554245068, -31.022001891612383 -0.5769283962897864 M-31.022001891612383 0.5769283962897952 C-31.022001891612383 0.2711558672209481, -31.022001891612383 -0.03461666184789902, -31.022001891612383 -0.5769283962897864 M-31.022001891612383 -0.5769283962897864 C-30.995808676366618 -0.9849088665253612, -30.969615461120853 -1.392889336760936, -30.948074033085568 -1.7284144663382603 M-31.022001891612383 -0.5769283962897864 C-31.005222641572757 -0.8382787596238055, -30.98844339153313 -1.0996291229578246, -30.948074033085568 -1.7284144663382603 M-30.948074033085568 -1.7284144663382603 C-30.913114032057386 -1.9995573306797856, -30.878154031029204 -2.270700195021311, -30.800522101460103 -2.8727981106008262 M-30.948074033085568 -1.7284144663382603 C-30.90867189840396 -2.0340096420972653, -30.86926976372235 -2.33960481785627, -30.800522101460103 -2.8727981106008262 M-30.800522101460103 -2.8727981106008262 C-30.726002245827544 -3.2554418194969483, -30.651482390194985 -3.6380855283930704, -30.579952419272825 -4.005376811213655 M-30.800522101460103 -2.8727981106008262 C-30.742279122860488 -3.171863496051957, -30.684036144260876 -3.4709288815030876, -30.579952419272825 -4.005376811213655 M-30.579952419272825 -4.005376811213655 C-30.463196486164684 -4.450617786496504, -30.346440553056542 -4.895858761779352, -30.287271354659893 -5.121496559358575 M-30.579952419272825 -4.005376811213655 C-30.512244818061305 -4.263575239293172, -30.444537216849785 -4.521773667372688, -30.287271354659893 -5.121496559358575 M-30.287271354659893 -5.121496559358575 C-30.18115620265321 -5.441098490049265, -30.07504105064653 -5.760700420739956, -29.92368159689569 -6.2165709795835244 M-30.287271354659893 -5.121496559358575 C-30.174203440837783 -5.46203910086518, -30.061135527015672 -5.802581642371785, -29.92368159689569 -6.2165709795835244 M-29.92368159689569 -6.2165709795835244 C-29.771234476982432 -6.593118313133826, -29.618787357069177 -6.9696656466841285, -29.490677214284624 -7.286100176203086 M-29.92368159689569 -6.2165709795835244 C-29.800967400667485 -6.519677416784772, -29.678253204439283 -6.822783853986019, -29.490677214284624 -7.286100176203086 M-29.490677214284624 -7.286100176203086 C-29.329799901105766 -7.620165359242057, -29.168922587926907 -7.954230542281027, -28.990037514714004 -8.32568922433503 M-29.490677214284624 -7.286100176203086 C-29.36194666763965 -7.55341191070383, -29.233216120994676 -7.820723645204573, -28.990037514714004 -8.32568922433503 M-28.990037514714004 -8.32568922433503 C-28.85553436634262 -8.564513184189089, -28.721031217971234 -8.803337144043148, -28.423819734096227 -9.331066229589455 M-28.990037514714004 -8.32568922433503 C-28.788876665877492 -8.682870681189021, -28.587715817040976 -9.040052138043013, -28.423819734096227 -9.331066229589455 M-28.423819734096227 -9.331066229589455 C-28.288968271272477 -9.538234289174756, -28.15411680844873 -9.74540234876006, -27.794350582745206 -10.298099882199054 M-28.423819734096227 -9.331066229589455 C-28.189656051898993 -9.690804527197352, -27.955492369701762 -10.050542824805248, -27.794350582745206 -10.298099882199054 M-27.794350582745206 -10.298099882199054 C-27.597206068377787 -10.56225557121666, -27.40006155401037 -10.826411260234265, -27.104216684424543 -11.2228164334572 M-27.794350582745206 -10.298099882199054 C-27.60499925854578 -10.55181340636578, -27.415647934346357 -10.805526930532505, -27.104216684424543 -11.2228164334572 M-27.104216684424543 -11.2228164334572 C-26.82380825612282 -11.552200129031979, -26.543399827821094 -11.881583824606759, -26.356253947355686 -12.101416024703695 M-27.104216684424543 -11.2228164334572 C-26.826709277973055 -11.548792423693873, -26.549201871521564 -11.874768413930548, -26.356253947355686 -12.101416024703695 M-26.356253947355686 -12.101416024703695 C-26.045059103267665 -12.422750250796435, -25.73386425917964 -12.744084476889174, -25.553535910862763 -12.930288301759086 M-26.356253947355686 -12.101416024703695 C-26.130527257007397 -12.334497364994236, -25.904800566659112 -12.567578705284777, -25.553535910862763 -12.930288301759086 M-25.553535910862763 -12.930288301759086 C-25.263357832146877 -13.193820355157616, -24.973179753430994 -13.457352408556146, -24.699361115540206 -13.706027250644407 M-25.553535910862763 -12.930288301759086 C-25.315289853677854 -13.14665706724918, -25.07704379649294 -13.363025832739273, -24.699361115540206 -13.706027250644407 M-24.699361115540206 -13.706027250644407 C-24.386601343742818 -13.955444845765758, -24.07384157194543 -14.20486244088711, -23.797239548841894 -14.425445193623215 M-24.699361115540206 -13.706027250644407 C-24.49179926648695 -13.871552301811604, -24.284237417433697 -14.037077352978802, -23.797239548841894 -14.425445193623215 M-23.797239548841894 -14.425445193623215 C-23.483817335346693 -14.64407496192852, -23.17039512185149 -14.862704730233826, -22.850878221789888 -15.085585888053124 M-23.797239548841894 -14.425445193623215 C-23.590495723140254 -14.569660736636711, -23.38375189743861 -14.713876279650206, -22.850878221789888 -15.085585888053124 M-22.850878221789888 -15.085585888053124 C-22.647517761115576 -15.20886419439261, -22.444157300441265 -15.332142500732097, -21.864165936070883 -15.683736674221008 M-22.850878221789888 -15.085585888053124 C-22.633433828284197 -15.21740195724137, -22.415989434778503 -15.349218026429616, -21.864165936070883 -15.683736674221008 M-21.864165936070883 -15.683736674221008 C-21.617317067532817 -15.81251757082307, -21.37046819899475 -15.941298467425133, -20.841157304116052 -16.217439622243543 M-21.864165936070883 -15.683736674221008 C-21.499452106553125 -15.874007645470066, -21.134738277035368 -16.064278616719122, -20.841157304116052 -16.217439622243543 M-20.841157304116052 -16.217439622243543 C-20.453968517624624 -16.388836612476027, -20.0667797311332 -16.56023360270851, -19.786056087828744 -16.684501632228386 M-20.841157304116052 -16.217439622243543 C-20.580480899029368 -16.332833334084604, -20.31980449394268 -16.448227045925666, -19.786056087828744 -16.684501632228386 M-19.786056087828744 -16.684501632228386 C-19.508630348278505 -16.7865968688783, -19.231204608728266 -16.88869210552821, -18.703197924425186 -17.08300344619203 M-19.786056087828744 -16.684501632228386 C-19.405655797228615 -16.824492455550974, -19.02525550662849 -16.96448327887356, -18.703197924425186 -17.08300344619203 M-18.703197924425186 -17.08300344619203 C-18.39782377766462 -17.17363689000896, -18.092449630904053 -17.26427033382589, -17.59703251037115 -17.411307534702523 M-18.703197924425186 -17.08300344619203 C-18.424861967978256 -17.165612097050232, -18.146526011531325 -17.24822074790843, -17.59703251037115 -17.411307534702523 M-17.59703251037115 -17.411307534702523 C-17.260915569481256 -17.48802403309262, -16.924798628591365 -17.56474053148272, -16.47210531662471 -17.668064825839174 M-17.59703251037115 -17.411307534702523 C-17.313850095178605 -17.475942073032265, -17.030667679986056 -17.540576611362006, -16.47210531662471 -17.668064825839174 M-16.47210531662471 -17.668064825839174 C-16.062363353409378 -17.734308728855446, -15.652621390194046 -17.80055263187172, -15.33303891032112 -17.85222024881843 M-16.47210531662471 -17.668064825839174 C-16.211788032008457 -17.710150905625238, -15.951470747392205 -17.7522369854113, -15.33303891032112 -17.85222024881843 M-15.33303891032112 -17.85222024881843 C-14.925817724662107 -17.891504386843824, -14.518596539003092 -17.93078852486922, -14.184513959652833 -17.963017069506055 M-15.33303891032112 -17.85222024881843 C-15.05750211592066 -17.878800951992766, -14.7819653215202 -17.905381655167098, -14.184513959652833 -17.963017069506055 M-14.184513959652833 -17.963017069506055 C-13.759196705393686 -17.97665616602033, -13.333879451134539 -17.99029526253461, -13.031250000000005 -18 M-14.184513959652833 -17.963017069506055 C-13.873699082895243 -17.972984297639215, -13.562884206137651 -17.98295152577237, -13.031250000000005 -18 M-13.031250000000005 -18 C-13.031250000000004 -18, -13.031250000000004 -18, -13.03125 -18 M-13.031250000000005 -18 C-13.031250000000004 -18, -13.031250000000002 -18, -13.03125 -18" stroke="#c9c5bc" stroke-width="1.3" fill="none" stroke-dasharray="0 0" style=""/></g><g class="label" style="" transform="translate(-19.03125, -10.5)"><rect/><foreignObject width="38.0625" height="21"><div xmlns="http://www.w3.org/1999/xhtml" style="display: table-cell; white-space: nowrap; line-height: 1.5; max-width: 200px; text-align: center;"><span class="nodeLabel"><p>Agent</p></span></div></foreignObject></g></g><g class="node default" id="my-svg-flowchart-S-1" data-look="classic" transform="translate(185.66900253295898, 471)"><rect class="basic label-container" style="" x="-65.625" y="-25.5" width="131.25" height="51"/><g class="label" style="" transform="translate(-35.625, -10.5)"><rect/><foreignObject width="71.25" height="21"><div xmlns="http://www.w3.org/1999/xhtml" style="display: table-cell; white-space: nowrap; line-height: 1.5; max-width: 200px; text-align: center;"><span class="nodeLabel"><p>Tool server</p></span></div></foreignObject></g></g><g class="node default" id="my-svg-flowchart-AU-3" data-look="classic" transform="translate(390.294002532959, 105)"><rect class="basic label-container" style="" x="-85.1328125" y="-36" width="170.265625" height="72"/><g class="label" style="" transform="translate(-55.1328125, -21)"><rect/><foreignObject width="110.265625" height="42"><div xmlns="http://www.w3.org/1999/xhtml" style="display: table-cell; white-space: nowrap; line-height: 1.5; max-width: 200px; text-align: center;"><span class="nodeLabel"><p>Operator session<br />no developer key</p></span></div></foreignObject></g></g><g class="node default" id="my-svg-flowchart-PT-5" data-look="classic" transform="translate(569.333065032959, 105)"><polygon points="40.0390625,0 80.078125,-40.0390625 40.0390625,-80.078125 0,-40.0390625" class="label-container" transform="translate(-39.5390625, 40.0390625)"/><g class="label" style="" transform="translate(-14.5390625, -10.5)"><rect/><foreignObject width="29.078125" height="21"><div xmlns="http://www.w3.org/1999/xhtml" style="display: table-cell; white-space: nowrap; line-height: 1.5; max-width: 200px; text-align: center;"><span class="nodeLabel"><p>Path</p></span></div></foreignObject></g></g><g class="node default" id="my-svg-flowchart-BR-7" data-look="classic" transform="translate(752.215877532959, 44)"><rect class="basic label-container" style="" x="-55.984375" y="-36" width="111.96875" height="72"/><g class="label" style="" transform="translate(-25.984375, -21)"><rect/><foreignObject width="51.96875" height="42"><div xmlns="http://www.w3.org/1999/xhtml" style="display: table-cell; white-space: nowrap; line-height: 1.5; max-width: 200px; text-align: center;"><span class="nodeLabel"><p>Stealth<br />browser</p></span></div></foreignObject></g></g><g class="node default" id="my-svg-flowchart-GQ-9" data-look="classic" transform="translate(752.215877532959, 166)"><rect class="basic label-container" style="" x="-92.84375" y="-36" width="185.6875" height="72"/><g class="label" style="" transform="translate(-62.84375, -21)"><rect/><foreignObject width="125.6875" height="42"><div xmlns="http://www.w3.org/1999/xhtml" style="display: table-cell; white-space: nowrap; line-height: 1.5; max-width: 200px; text-align: center;"><span class="nodeLabel"><p>Internal endpoints<br />ids rotate upstream</p></span></div></foreignObject></g></g><g class="node default" id="my-svg-flowchart-F1-11" data-look="classic" transform="translate(390.294002532959, 227)"><rect class="basic label-container" style="" x="-76.2265625" y="-36" width="152.453125" height="72"/><g class="label" style="" transform="translate(-46.2265625, -21)"><rect/><foreignObject width="92.453125" height="42"><div xmlns="http://www.w3.org/1999/xhtml" style="display: table-cell; white-space: nowrap; line-height: 1.5; max-width: 200px; text-align: center;"><span class="nodeLabel"><p>Publishing<br />posts, threads</p></span></div></foreignObject></g></g><g class="node default" id="my-svg-flowchart-F2-13" data-look="classic" transform="translate(390.294002532959, 349)"><rect class="basic label-container" style="" x="-71.9375" y="-36" width="143.875" height="72"/><g class="label" style="" transform="translate(-41.9375, -21)"><rect/><foreignObject width="83.875" height="42"><div xmlns="http://www.w3.org/1999/xhtml" style="display: table-cell; white-space: nowrap; line-height: 1.5; max-width: 200px; text-align: center;"><span class="nodeLabel"><p>Deep read<br />likes, articles</p></span></div></foreignObject></g></g><g class="node default" id="my-svg-flowchart-F3-15" data-look="classic" transform="translate(390.294002532959, 471)"><rect class="basic label-container" style="" x="-80.171875" y="-36" width="160.34375" height="72"/><g class="label" style="" transform="translate(-50.171875, -21)"><rect/><foreignObject width="100.34375" height="42"><div xmlns="http://www.w3.org/1999/xhtml" style="display: table-cell; white-space: nowrap; line-height: 1.5; max-width: 200px; text-align: center;"><span class="nodeLabel"><p>Analytics<br />audience, rivals</p></span></div></foreignObject></g></g><g class="node default" id="my-svg-flowchart-F4-17" data-look="classic" transform="translate(390.294002532959, 593)"><rect class="basic label-container" style="" x="-89" y="-36" width="178" height="72"/><g class="label" style="" transform="translate(-59, -21)"><rect/><foreignObject width="118" height="42"><div xmlns="http://www.w3.org/1999/xhtml" style="display: table-cell; white-space: nowrap; line-height: 1.5; max-width: 200px; text-align: center;"><span class="nodeLabel"><p>CRM and graph<br />mutuals, influence</p></span></div></foreignObject></g></g><g class="node default" id="my-svg-flowchart-F5-19" data-look="classic" transform="translate(390.294002532959, 715)"><rect class="basic label-container" style="" x="-79.7890625" y="-36" width="159.578125" height="72"/><g class="label" style="" transform="translate(-49.7890625, -21)"><rect/><foreignObject width="99.578125" height="42"><div xmlns="http://www.w3.org/1999/xhtml" style="display: table-cell; white-space: nowrap; line-height: 1.5; max-width: 200px; text-align: center;"><span class="nodeLabel"><p>Streams<br />polling, backoff</p></span></div></foreignObject></g></g><g class="node default" id="my-svg-flowchart-F6-21" data-look="classic" transform="translate(390.294002532959, 837)"><rect class="basic label-container" style="" x="-81.2109375" y="-36" width="162.421875" height="72"/><g class="label" style="" transform="translate(-51.2109375, -21)"><rect/><foreignObject width="102.421875" height="42"><div xmlns="http://www.w3.org/1999/xhtml" style="display: table-cell; white-space: nowrap; line-height: 1.5; max-width: 200px; text-align: center;"><span class="nodeLabel"><p>Personas<br />ceilings, rhythm</p></span></div></foreignObject></g></g></g></g></g><defs><filter id="my-svg-drop-shadow" height="130%" width="130%"><feDropShadow dx="4" dy="4" stdDeviation="0" flood-opacity="0.06" flood-color="#000000"/></filter></defs><defs><filter id="my-svg-drop-shadow-small" height="150%" width="150%"><feDropShadow dx="2" dy="2" stdDeviation="0" flood-opacity="0.06" flood-color="#000000"/></filter></defs><linearGradient id="my-svg-gradient" gradientUnits="objectBoundingBox" x1="0%" y1="0%" x2="100%" y2="0%"><stop offset="0%" stop-color="#c9c5bc" stop-opacity="1"/><stop offset="100%" stop-color="hsl(40, 0%, 81.9607843137%)" stop-opacity="1"/></linearGradient></svg>